<mxfile host="app.diagrams.net" modified="2020-11-30T06:58:14.192Z" agent="5.0 (Windows NT 10.0; Win64; x64) AppleWebKit/537.36 (KHTML, like Gecko) Chrome/87.0.4280.66 Safari/537.36" etag="_wJbNlXsVLmBingCaaAH" version="13.9.8" type="github">
  <diagram id="cun0R81KD2xrrdPtLENM" name="Page-1">
    <mxGraphModel dx="865" dy="436" grid="1" gridSize="10" guides="1" tooltips="1" connect="1" arrows="1" fold="1" page="1" pageScale="1" pageWidth="827" pageHeight="1169" math="0" shadow="0">
      <root>
        <mxCell id="0" />
        <mxCell id="1" parent="0" />
        <mxCell id="L10yqWbwLbxvtbt3anjW-1" value="" style="rounded=1;whiteSpace=wrap;html=1;dashed=1;fillColor=#f8cecc;strokeColor=#b85450;" vertex="1" parent="1">
          <mxGeometry x="194" y="90" width="440" height="160" as="geometry" />
        </mxCell>
        <mxCell id="L10yqWbwLbxvtbt3anjW-2" value="Model" style="text;html=1;strokeColor=none;fillColor=none;align=center;verticalAlign=middle;whiteSpace=wrap;rounded=0;dashed=1;fontSize=22;" vertex="1" parent="1">
          <mxGeometry x="394" y="110" width="40" height="20" as="geometry" />
        </mxCell>
        <mxCell id="L10yqWbwLbxvtbt3anjW-3" value="&lt;font style=&quot;font-size: 14px&quot;&gt;- описание роботов (кинематика, положения и т.д.);&lt;br&gt;&lt;/font&gt;&lt;div style=&quot;font-size: 14px&quot;&gt;&lt;span&gt;&lt;font style=&quot;font-size: 14px&quot;&gt;- описание команд;&lt;/font&gt;&lt;/span&gt;&lt;/div&gt;&lt;div style=&quot;font-size: 14px&quot;&gt;&lt;font style=&quot;font-size: 14px&quot;&gt;- описание обрабатываемых заготовок в полигональном виде;&lt;/font&gt;&lt;/div&gt;&lt;div style=&quot;font-size: 14px&quot;&gt;&lt;font style=&quot;font-size: 14px&quot;&gt;- описание области сканирования;&lt;/font&gt;&lt;/div&gt;" style="text;html=1;strokeColor=none;fillColor=none;align=left;verticalAlign=top;whiteSpace=wrap;rounded=0;dashed=1;fontSize=22;" vertex="1" parent="1">
          <mxGeometry x="210" y="140" width="410" height="100" as="geometry" />
        </mxCell>
        <mxCell id="L10yqWbwLbxvtbt3anjW-4" value="" style="rounded=1;whiteSpace=wrap;html=1;dashed=1;fontSize=22;align=left;fillColor=#dae8fc;strokeColor=#6c8ebf;" vertex="1" parent="1">
          <mxGeometry x="44" y="300" width="350" height="130" as="geometry" />
        </mxCell>
        <mxCell id="L10yqWbwLbxvtbt3anjW-7" value="View" style="text;html=1;strokeColor=none;fillColor=none;align=center;verticalAlign=middle;whiteSpace=wrap;rounded=0;dashed=1;fontSize=22;" vertex="1" parent="1">
          <mxGeometry x="199" y="310" width="40" height="20" as="geometry" />
        </mxCell>
        <mxCell id="L10yqWbwLbxvtbt3anjW-9" value="&lt;span style=&quot;font-size: 14px&quot;&gt;Методы изменяющие представление (элементы графического интерфейса) в зависимости от состояния модели&lt;br&gt;&lt;/span&gt;" style="text;html=1;strokeColor=none;fillColor=none;align=center;verticalAlign=top;whiteSpace=wrap;rounded=0;dashed=1;fontSize=22;" vertex="1" parent="1">
          <mxGeometry x="56" y="330" width="326" height="100" as="geometry" />
        </mxCell>
        <mxCell id="L10yqWbwLbxvtbt3anjW-10" value="" style="rounded=1;whiteSpace=wrap;html=1;dashed=1;fontSize=22;align=left;fillColor=#d5e8d4;strokeColor=#82b366;" vertex="1" parent="1">
          <mxGeometry x="450" y="300" width="350" height="100" as="geometry" />
        </mxCell>
        <mxCell id="L10yqWbwLbxvtbt3anjW-11" value="Components" style="text;html=1;strokeColor=none;fillColor=none;align=center;verticalAlign=middle;whiteSpace=wrap;rounded=0;dashed=1;fontSize=22;" vertex="1" parent="1">
          <mxGeometry x="605" y="310" width="40" height="20" as="geometry" />
        </mxCell>
        <mxCell id="L10yqWbwLbxvtbt3anjW-12" value="&lt;span style=&quot;font-size: 14px&quot;&gt;Методы и данные отвечающие за внутреннюю логику приложения&amp;nbsp;&lt;br&gt;&lt;/span&gt;" style="text;html=1;strokeColor=none;fillColor=none;align=center;verticalAlign=top;whiteSpace=wrap;rounded=0;dashed=1;fontSize=22;" vertex="1" parent="1">
          <mxGeometry x="462" y="330" width="326" height="60" as="geometry" />
        </mxCell>
        <mxCell id="L10yqWbwLbxvtbt3anjW-16" value="" style="endArrow=classic;html=1;fontSize=22;entryX=0.25;entryY=0;entryDx=0;entryDy=0;exitX=0;exitY=0.5;exitDx=0;exitDy=0;rounded=0;dashed=1;" edge="1" parent="1" source="L10yqWbwLbxvtbt3anjW-1" target="L10yqWbwLbxvtbt3anjW-4">
          <mxGeometry width="50" height="50" relative="1" as="geometry">
            <mxPoint x="120" y="250" as="sourcePoint" />
            <mxPoint x="170" y="200" as="targetPoint" />
            <Array as="points">
              <mxPoint x="130" y="170" />
            </Array>
          </mxGeometry>
        </mxCell>
        <mxCell id="L10yqWbwLbxvtbt3anjW-17" value="" style="endArrow=none;html=1;dashed=1;fontSize=22;exitX=0.645;exitY=0;exitDx=0;exitDy=0;exitPerimeter=0;entryX=1;entryY=0.75;entryDx=0;entryDy=0;endFill=0;startArrow=classic;startFill=1;rounded=0;" edge="1" parent="1" source="L10yqWbwLbxvtbt3anjW-10" target="L10yqWbwLbxvtbt3anjW-1">
          <mxGeometry width="50" height="50" relative="1" as="geometry">
            <mxPoint x="690" y="260" as="sourcePoint" />
            <mxPoint x="650" y="200" as="targetPoint" />
            <Array as="points">
              <mxPoint x="676" y="210" />
            </Array>
          </mxGeometry>
        </mxCell>
        <mxCell id="L10yqWbwLbxvtbt3anjW-18" value="" style="endArrow=classic;html=1;fontSize=22;entryX=1;entryY=0.25;entryDx=0;entryDy=0;exitX=0.771;exitY=0.002;exitDx=0;exitDy=0;exitPerimeter=0;" edge="1" parent="1" source="L10yqWbwLbxvtbt3anjW-10" target="L10yqWbwLbxvtbt3anjW-1">
          <mxGeometry width="50" height="50" relative="1" as="geometry">
            <mxPoint x="720" y="298" as="sourcePoint" />
            <mxPoint x="790" y="200" as="targetPoint" />
            <Array as="points">
              <mxPoint x="720" y="130" />
            </Array>
          </mxGeometry>
        </mxCell>
        <mxCell id="L10yqWbwLbxvtbt3anjW-19" value="RX Binding" style="text;html=1;strokeColor=none;fillColor=none;align=center;verticalAlign=middle;whiteSpace=wrap;rounded=0;dashed=1;fontSize=14;" vertex="1" parent="1">
          <mxGeometry x="104" y="150" width="90" height="20" as="geometry" />
        </mxCell>
        <mxCell id="L10yqWbwLbxvtbt3anjW-20" value="RX Binding" style="text;html=1;strokeColor=none;fillColor=none;align=center;verticalAlign=middle;whiteSpace=wrap;rounded=0;dashed=1;fontSize=14;" vertex="1" parent="1">
          <mxGeometry x="634" y="190" width="76" height="20" as="geometry" />
        </mxCell>
      </root>
    </mxGraphModel>
  </diagram>
</mxfile>
